<?xml version="1.0" encoding="iso-8859-1"?>
<!-- Generator: Adobe Illustrator 19.1.0, SVG Export Plug-In . SVG Version: 6.00 Build 0)  -->
<svg version="1.1" id="Layer_1" xmlns="http://www.w3.org/2000/svg" xmlns:xlink="http://www.w3.org/1999/xlink" x="0px" y="0px"
	 viewBox="0 0 509.901 510" style="enable-background:new 0 0 509.901 510;" xml:space="preserve">
<path style="fill:#F5F6F4;" d="M350.819,510H162.027c-18.132,0-33.867-9.773-38.268-23.767L48.482,236.207H463.04l-73.885,249.811
	C384.778,500.175,369.025,510,350.819,510z M77.722,254.56l68.439,227.308c1.8,5.723,8.336,9.78,15.866,9.78h188.792
	c7.561,0,14.105-4.081,15.911-9.923l67.187-227.165H77.722z"/>
<path style="fill:#F5F6F4;" d="M453.767,254.807c-2.169,0-4.372-0.102-6.613-0.308l2.649-18.23
	c13.116,1.203,23.098-3.377,29.707-13.614c13.327-20.641,7.895-55.973-11.179-72.699c-11.559-10.14-26.578-12.391-44.627-6.699
	c-4.545,1.436-9.735,0.432-12.947-2.504c-3.212-2.934-3.748-7.16-1.34-10.547c10.426-14.659,9.706-29.597-1.881-38.986
	c-11.949-9.685-31.793-10.717-50.542-2.635c-3.397,1.468-7.487,1.48-10.906,0.038c-3.412-1.443-5.69-4.149-6.068-7.21
	c-5.354-43.502-42.807-61.014-76.07-62.896c-35.73-2.02-79.96,14.372-92.479,55.15c-0.935,3.043-3.755,5.497-7.482,6.508
	c-3.725,1.013-7.841,0.441-10.92-1.516c-18.499-11.757-36.543-7.769-47.26-0.109c-18.625,13.309-16.057,32.9-5.25,46.411
	c2.581,3.226,2.376,7.386-0.511,10.441c-2.89,3.058-7.868,4.368-12.465,3.29c-21.357-4.993-38.043-2.133-49.609,8.488
	c-17.035,15.642-20.071,46.54-7.25,68.875c5.275,9.194,12.167,20.153,33.167,20.153v18.352c-26,0-42.883-11.257-54.148-30.882
	c-14.456-25.184-14.416-65.179,10.997-88.517c12.996-11.936,30.692-17.793,51.18-17.108c-6.003-17.505-2.646-38.027,18.529-53.159
	c15.296-10.931,39.433-16.379,63.248-7.472C173.794,15,224.165-2.135,265.6,0.211c37.556,2.124,82.963,21.173,95.068,67.267
	c23.594-5.914,47.318-2.092,63.33,10.884c14.127,11.447,18.952,27.195,14.15,43.554c18.098-0.914,34.378,4.403,47.266,15.707
	c25.484,22.351,32.312,66.004,14.613,93.419C490.144,246.349,473.516,254.805,453.767,254.807z"/>
</svg>
