<?xml version="1.0" encoding="iso-8859-1"?>
<!-- Generator: Adobe Illustrator 19.1.0, SVG Export Plug-In . SVG Version: 6.00 Build 0)  -->
<svg version="1.1" id="Layer_1" xmlns="http://www.w3.org/2000/svg" xmlns:xlink="http://www.w3.org/1999/xlink" x="0px" y="0px"
	 viewBox="0 0 500 500" style="enable-background:new 0 0 500 500;" xml:space="preserve">
<path style="fill:#F5F6F4;" d="M245.435,500c-3.756,0-7.522-0.98-10.981-2.944c-9.159-5.199-14.439-16.078-14.489-29.846
	l0.001-0.119l5.31-287.772c-3.051-6.742-6.928-10.635-11.023-14.745c-11.372-11.417-23.133-23.223-18.167-87.019
	c1.426-23.817,2.848-42.132,4.223-54.343c1.693-15.054,2.877-22.941,9.181-22.941c0.029,0,0.058,0,0.087,0.001
	c6.365,0.073,7.367,7.886,8.718,22.852c0.987,10.935,1.903,26.839,2.728,47.348c0.804-19.538,1.718-35.014,2.728-46.127
	c1.573-17.321,2.747-23.868,8.899-23.899c0.014,0,0.028,0,0.043,0c5.988,0,7.247,6.406,8.871,22.09
	c1.129,10.9,2.229,26.781,3.277,47.28c0.474-18.994,1.223-34.826,2.187-46.124c1.512-17.718,3.01-23.626,8.9-23.69
	c0.03,0,0.06,0,0.09,0c6.089,0,7.458,6.849,9.116,22.396c1.356,12.718,2.552,31.342,3.555,55.353
	c0.167,3.319,0.35,6.365,0.544,9.156c0.191-2.741,0.378-5.761,0.559-9.087c0.083-23,0.646-41.872,1.625-54.587
	c1.243-16.128,2.737-22.895,8.775-23.059c0.072-0.001,0.143-0.002,0.213-0.002c5.883,0,7.726,6.766,9.82,22.753
	c1.673,12.764,3.251,31.684,4.563,54.713c4.614,66.833-5.615,76.304-18.564,88.29c-4.044,3.743-8.218,7.605-12.302,13.961
	l6.448,286.866c0.302,13.721-4.638,24.671-13.554,30.044C253.273,498.93,249.36,500,245.435,500z M230.597,467.231
	c0.049,9.785,3.358,17.258,9.083,20.508c3.753,2.132,8.006,2.088,11.672-0.12c5.545-3.342,8.602-10.86,8.386-20.626l-6.518-290.042
	l0.815-1.34c5.119-8.423,10.363-13.277,14.989-17.559c11.273-10.433,19.42-17.973,15.154-79.707l-0.004-0.065
	c-0.962-16.9-1.979-30.067-2.957-40.175c-0.43,10.067-0.736,23.146-0.795,39.887l-0.008,0.272
	c-0.716,13.272-1.625,23.475-2.699,30.329c-0.906,5.788-2.149,13.712-8.36,13.712c-0.005,0-0.009,0-0.015,0
	c-6.37-0.013-7.711-8.736-8.69-15.105c-1.095-7.127-1.988-17.14-2.58-28.957c-0.564-13.472-1.154-24.358-1.734-33.149
	c-0.417,8.942-0.781,19.809-1.044,32.911c0.107,12.875-0.239,22.994-1.026,30.079c-0.616,5.546-1.547,13.928-7.958,14.082
	c-5.991,0.112-7.762-7.175-9.047-14.685c-1.273-7.44-2.189-17.571-2.65-29.296c-0.612-12.8-1.209-23.248-1.774-31.771
	c-0.492,8.523-0.992,18.967-1.476,31.764c-0.304,12.678-0.81,22.508-1.498,29.14c-0.677,6.525-1.444,13.921-7.442,14.109
	c-0.074,0.003-0.146,0.004-0.219,0.004c-5.869,0-7.119-7.569-8.223-14.257c-1.111-6.725-2.214-16.393-3.279-28.736l-0.016-0.262
	c-0.532-14.261-1.073-25.609-1.597-34.636c-0.732,9.048-1.535,20.432-2.392,34.757c-4.589,58.97,4.96,68.556,15.07,78.706
	c4.603,4.62,9.819,9.857,13.743,19.15l0.443,1.05l-0.021,1.141L230.597,467.231z"/>
<path style="fill:#F5F6F4;" d="M200.206,269.823H5.316c-2.936,0-5.316-2.394-5.316-5.349V212.87c0-2.954,2.38-5.349,5.316-5.349
	h194.89c2.936,0,5.316,2.394,5.316,5.349v51.605C205.522,267.429,203.142,269.823,200.206,269.823z M10.632,259.125H194.89v-40.907
	H10.632V259.125z"/>
<path style="fill:#F5F6F4;" d="M228.029,277.262c-0.389,0-0.785-0.043-1.181-0.134c-7.415-1.691-13.242-3.551-19.989-5.705
	c-2.904-0.927-5.908-1.886-9.245-2.895c-2.255-0.681-3.795-2.774-3.787-5.142l0.189-50.537c0.011-2.946,2.388-5.329,5.316-5.329
	h29.518c2.936,0,5.316,2.394,5.316,5.349c0,2.954-2.38,5.349-5.316,5.349h-24.222l-0.155,41.235c1.947,0.608,3.792,1.196,5.6,1.774
	c6.517,2.08,12.146,3.877,19.124,5.469c2.864,0.653,4.658,3.517,4.009,6.399C232.649,275.578,230.456,277.262,228.029,277.262z"/>
<path style="fill:#F5F6F4;" d="M319.428,287.453c-18.834,0-38.348-1.593-58.506-4.785c-2.9-0.46-4.881-3.198-4.425-6.116
	c0.456-2.918,3.164-4.91,6.078-4.452c59.585,9.437,113.288,4.508,159.617-14.648c28.074-11.608,48.797-26.929,60.848-39.234H261.988
	c-2.936,0-5.316-2.394-5.316-5.349c0-2.954,2.38-5.349,5.316-5.349h232.696c2.008,0,3.845,1.139,4.748,2.943
	c0.903,1.804,0.719,3.967-0.477,5.59c-3.264,4.433-10.873,13.49-25.154,24.35c-13.916,10.582-29.921,19.646-47.568,26.944
	C393.851,280.736,358.088,287.453,319.428,287.453z"/>
</svg>
