<?xml version="1.0" encoding="iso-8859-1"?>
<!-- Generator: Adobe Illustrator 19.1.0, SVG Export Plug-In . SVG Version: 6.00 Build 0)  -->
<svg version="1.1" id="Layer_1" xmlns="http://www.w3.org/2000/svg" xmlns:xlink="http://www.w3.org/1999/xlink" x="0px" y="0px"
	 viewBox="0 0 509.901 510" style="enable-background:new 0 0 509.901 510;" xml:space="preserve">
<g>
	<path style="fill:#1FB870;" d="M107.708,244.279c-55.97,0-57.236-142.186,21.362-117.861
		c-25.994-43.053,17.628-89.79,53.492-59.594c20.126-86.821,128.692-80.923,147.319,9.215
		c38.454-21.969,74.711,13.675,52.351,55.316c70.046-29.262,82.221,115.924,22.36,112.924"/>
	<path style="fill:#F5F6F4;" d="M406.41,249.325c-0.684,0-1.373-0.017-2.067-0.052l0.5-9.987
		c15.251,0.75,23.331-9.843,27.421-18.876c10.891-24.057,5.756-61.466-10.771-78.487c-9.877-10.173-22.438-12.175-37.332-5.953
		l-12.995,5.429l6.662-12.408c7.361-13.709,10.416-33.046-3.091-46.202c-10.623-10.349-26.859-11.271-42.374-2.408l-5.982,3.418
		l-1.395-6.748c-4.293-20.775-13.896-38.099-27.768-50.098c-12.454-10.771-27.993-16.808-43.755-16.997
		c-14.813-0.173-28.733,4.647-40.207,13.953c-12.578,10.202-21.507,25.433-25.822,44.044l-1.844,7.956l-6.247-5.26
		c-15.319-12.897-30.672-9.039-39.932-1.126c-16.826,14.377-15.785,38.204-6.06,54.311l6.789,11.244l-12.547-3.883
		c-17.388-5.381-31.241-2.407-41.175,8.835c-15.011,16.988-18.162,52.276-6.989,77.058c3.736,8.288,12.462,22.191,28.462,22.191v10
		c-16,0-29.414-9.973-37.578-28.082c-5.898-13.083-8.588-29.738-7.298-45.697c1.378-17.058,7.021-32.007,15.932-42.092
		c7.556-8.551,20.512-17.229,41.023-14.21c-3.539-9.147-4.624-18.671-3.128-28.017c1.856-11.596,7.564-21.987,16.076-29.261
		c13.674-11.684,31.363-12.77,46.694-3.385c11.067-36.241,39.446-59.02,73.971-58.579c31.405,0.376,67.439,21.846,79.726,68.782
		c17.59-7.607,36.057-5.142,48.405,6.886c12.093,11.778,15.397,29.735,9.395,47.772c14.34-2.844,27.399,1.1,37.557,11.559
		c19.351,19.927,25.289,61.786,12.708,89.577C434.106,240.588,421.743,249.325,406.41,249.325z"/>
</g>
<g>
	<polyline style="fill:#1FB870;" points="91.89,281 91.89,254 20.565,244.279 42.462,297.967 9.522,337.718 47.652,342.097 	"/>
	<polygon style="fill:#F5F6F4;" points="47.082,347.064 -0.216,341.633 36.701,297.082 12.668,238.157 96.89,249.635 96.89,281 
		86.89,281 86.89,258.365 28.462,250.402 48.223,298.852 19.259,333.803 48.222,337.129 	"/>
</g>
<g>
	<polyline style="fill:#1FB870;" points="418.89,284 418.89,257 490.031,247.279 471.042,300.967 500.936,340.718 464.968,345.097 	
		"/>
	<polygon style="fill:#F5F6F4;" points="465.572,350.06 464.363,340.134 491.734,336.801 465.433,301.828 482.583,253.344 
		423.89,261.363 423.89,284 413.89,284 413.89,252.637 497.479,241.215 476.65,300.105 510.138,344.635 	"/>
</g>
<g>
	<path style="fill:#1FB870;" d="M329.357,504.951H183.918c-9.866,0-18.467-7.076-20.863-17.164l-55.347-243.508h296.884
		l-54.351,243.417C347.878,497.829,339.257,504.951,329.357,504.951z"/>
	<path style="fill:#F5F6F4;" d="M329.357,509.951H183.918c-12.21,0-22.79-8.639-25.728-21.008l-56.747-249.664h309.388
		l-55.71,249.507C352.21,501.267,341.62,509.951,329.357,509.951z M113.972,249.279l53.958,237.4
		c1.852,7.795,8.43,13.271,15.987,13.271h145.439c7.59,0,14.176-5.507,16.016-13.391l52.98-237.281H113.972z"/>
</g>
<g>
	<path style="fill:#1FB870;" d="M454.117,400.743c-121.398,20.846-269.904,21.303-395.404,0v-110.64
		c124.072,15.986,272.603,15.625,395.404,0V400.743z"/>
	<path style="fill:#F5F6F4;" d="M256.948,421.59c-68.191,0-136.555-5.306-199.072-15.917l-4.163-0.707V284.418l5.639,0.727
		c122.624,15.799,269.963,15.798,394.135-0.001l5.631-0.717v120.531l-4.154,0.713C393.158,416.283,325.139,421.59,256.948,421.59z
		 M63.713,396.511c121.695,20.112,265.062,20.116,385.404,0.008V295.768c-121.864,14.96-264.984,14.962-385.404,0.008V396.511z"/>
</g>
<g>
	<path style="fill:#F5F6F4;" d="M114.172,386.187l4.832-70.835l32.524,2.219c3.457,0.236,6.601,1.169,9.431,2.799
		c2.829,1.63,5.213,3.663,7.152,6.101c1.939,2.437,3.405,5.178,4.401,8.219c0.995,3.042,1.391,6.058,1.187,9.051
		c-0.281,4.125-1.441,7.905-3.479,11.34c-2.039,3.436-4.732,6.177-8.079,8.219l14.187,27.128l-21.949-1.497l-11.985-22.668
		l-7.283-0.497l-1.484,21.749L114.172,386.187z M136.268,348.805l12.271,0.837c1.197,0.082,2.356-0.507,3.478-1.767
		c1.121-1.26,1.764-3.087,1.927-5.482c0.168-2.459-0.302-4.38-1.411-5.759s-2.262-2.109-3.459-2.191l-11.772-0.803L136.268,348.805z
		"/>
	<path style="fill:#F5F6F4;" d="M240.414,343.59c-2-1.2-4.066-2.266-6.199-3.2c-1.801-0.8-3.817-1.55-6.051-2.25
		c-2.234-0.7-4.417-1.05-6.55-1.05c-1.734,0-3.117,0.267-4.149,0.8c-1.035,0.534-1.551,1.435-1.551,2.7c0,0.935,0.301,1.7,0.9,2.3
		s1.466,1.15,2.6,1.65c1.133,0.5,2.516,0.984,4.15,1.449c1.633,0.468,3.482,1.035,5.55,1.7c3.266,1,6.216,2.101,8.851,3.3
		c2.633,1.2,4.883,2.617,6.75,4.25c1.865,1.635,3.3,3.617,4.3,5.95c1,2.335,1.5,5.167,1.5,8.5c0,4.268-0.784,7.851-2.351,10.75
		c-1.566,2.9-3.634,5.218-6.199,6.95c-2.567,1.734-5.468,2.984-8.7,3.75c-3.234,0.766-6.484,1.15-9.75,1.15
		c-2.601,0-5.268-0.2-8-0.601c-2.734-0.399-5.45-0.966-8.15-1.7c-2.7-0.732-5.3-1.6-7.8-2.6s-4.817-2.133-6.95-3.4l8.4-17.1
		c2.333,1.467,4.766,2.768,7.3,3.9c2.133,1,4.55,1.899,7.25,2.699c2.7,0.801,5.45,1.2,8.25,1.2c2.133,0,3.615-0.282,4.45-0.85
		c0.833-0.565,1.25-1.315,1.25-2.25c0-1-0.417-1.851-1.25-2.55c-0.835-0.7-1.984-1.316-3.45-1.851c-1.467-0.532-3.15-1.065-5.05-1.6
		c-1.9-0.533-3.917-1.166-6.05-1.9c-3.135-1.065-5.835-2.216-8.101-3.45c-2.267-1.232-4.134-2.633-5.6-4.199
		c-1.468-1.566-2.55-3.351-3.25-5.351s-1.05-4.3-1.05-6.899c0-3.934,0.715-7.4,2.149-10.4c1.433-3,3.383-5.5,5.851-7.5
		c2.465-2,5.282-3.516,8.449-4.55c3.166-1.033,6.516-1.55,10.051-1.55c2.6,0,5.133,0.25,7.6,0.75c2.466,0.5,4.85,1.134,7.15,1.899
		c2.3,0.768,4.449,1.601,6.449,2.5c2,0.9,3.801,1.75,5.4,2.55L240.414,343.59z"/>
	<path style="fill:#F5F6F4;" d="M282.98,322.678l14.709,46.25l12.886-46.732l20.497-0.358l-24.856,71.445l-16.198,0.283
		l-27.635-70.528L282.98,322.678z"/>
	<path style="fill:#F5F6F4;" d="M351.49,389.959l-4.254-70.872l30.546-1.834c3.46-0.208,6.696,0.316,9.711,1.571
		c3.013,1.255,5.638,2.967,7.872,5.137c2.235,2.17,4.039,4.701,5.415,7.59c1.376,2.89,2.153,5.831,2.333,8.825
		c0.188,3.129-0.195,6.207-1.148,9.236c-0.955,3.029-2.377,5.752-4.268,8.171c-1.894,2.418-4.244,4.396-7.058,5.934
		c-2.813,1.539-5.95,2.411-9.41,2.618l-11.58,0.695l1.306,21.761L351.49,389.959z M368.63,350.06l10.282-0.617
		c1.197-0.072,2.278-0.688,3.245-1.848c0.965-1.16,1.362-3.17,1.19-6.032c-0.176-2.927-0.894-4.888-2.156-5.881
		c-1.262-0.992-2.492-1.453-3.689-1.381l-9.783,0.587L368.63,350.06z"/>
</g>
</svg>
